<svg width="80" height="80" viewBox="0 0 80 80" fill="none" xmlns="http://www.w3.org/2000/svg">
<path d="M60.6864 0H19.3126C17.7871 0 16.5513 1.23586 16.5513 2.76138V68.9655H63.4478V2.76138C63.4478 1.23586 62.212 0 60.6864 0V0Z" fill="#EBBA16"/>
<path d="M44.1381 6.89656H35.8622C35.1008 6.89656 34.4829 6.27863 34.4829 5.51725C34.4829 4.75587 35.1008 4.13794 35.8622 4.13794H44.1381C44.8995 4.13794 45.5174 4.75587 45.5174 5.51725C45.5174 6.27863 44.8995 6.89656 44.1381 6.89656Z" fill="white"/>
<path d="M60.0602 80H19.9389C18.0671 80 16.5513 78.4842 16.5513 76.6124V63.4483H63.4478V76.6124C63.4478 78.4842 61.932 80 60.0602 80Z" fill="#EAEFF0"/>
<path d="M39.9995 75.862C42.2848 75.862 44.1374 74.0094 44.1374 71.7241C44.1374 69.4388 42.2848 67.5862 39.9995 67.5862C37.7142 67.5862 35.8616 69.4388 35.8616 71.7241C35.8616 74.0094 37.7142 75.862 39.9995 75.862Z" fill="#B8BEC3"/>
<path d="M42.758 17.931L24.827 24.8276L22.0684 44.1379L37.2408 56.5517L55.1718 49.6552L57.9304 30.3448L42.758 17.931Z" fill="#DC691D"/>
<path d="M28.9674 42.7586C28.4612 42.7586 27.9743 42.48 27.7329 41.9959C27.3922 41.3145 27.6681 40.4855 28.3495 40.1448L38.7233 34.9572L40.0115 24.6552C40.1067 23.8993 40.7964 23.3752 41.5508 23.4579C42.3067 23.5517 42.8433 24.2414 42.7481 24.9972L41.3688 36.0317C41.3122 36.4896 41.0295 36.8883 40.6171 37.0952L29.5826 42.6124C29.3853 42.7117 29.1743 42.7586 28.9674 42.7586Z" fill="white"/>
<path d="M49.6558 45.5172C49.3385 45.5172 49.0185 45.4083 48.7592 45.1848L39.1041 36.909C38.5261 36.4138 38.4585 35.5435 38.9551 34.9655C39.4503 34.3848 40.322 34.3186 40.8999 34.8166L50.5551 43.0924C51.133 43.5876 51.2006 44.4579 50.7041 45.0359C50.431 45.3545 50.0434 45.5172 49.6558 45.5172Z" fill="white"/>
</svg>
