<svg width="612" height="375" viewBox="0 0 612 375" fill="none" xmlns="http://www.w3.org/2000/svg">
<path d="M504.104 221.576H564.69V373.567H504.104V221.576Z" fill="#EBEBEB"/>
<path d="M586.75 177.997L572.132 221.576H496.974L480.58 177.997H586.75Z" fill="#EBEBEB"/>
<path d="M481.001 179.031L497.761 137.108C498.31 135.751 499.253 134.59 500.469 133.774C501.684 132.958 503.117 132.525 504.581 132.532H509.88V131.616H504.581C502.929 131.613 501.315 132.106 499.947 133.031C498.579 133.957 497.521 135.272 496.91 136.806L480.15 178.729L481.001 179.031Z" fill="#EBEBEB"/>
<path d="M511.061 134.481H514.557C515.108 134.481 515.637 134.262 516.026 133.873C516.416 133.483 516.635 132.954 516.635 132.403C516.635 131.851 516.416 131.322 516.027 130.931C515.638 130.54 515.109 130.319 514.557 130.316H511.061C510.509 130.319 509.98 130.54 509.591 130.931C509.201 131.322 508.983 131.851 508.983 132.403C508.983 132.954 509.202 133.483 509.591 133.873C509.981 134.262 510.51 134.481 511.061 134.481Z" fill="#E0E0E0"/>
<path d="M516.489 221.576H550.393V373.512H516.489V221.576Z" fill="#E0E0E0"/>
<path d="M77.3836 284.707C77.3836 284.707 80.395 267.8 100.331 262.162C100.331 262.162 84.2211 258.134 72.1479 278.061C72.1479 278.061 71.3423 256.926 100.331 252.294C100.331 252.294 85.0266 245.887 68.9258 263.974C68.9258 263.974 72.3492 245.86 93.4844 242.235C93.4844 242.235 77.0083 238.574 65.7038 254.711C65.7038 254.711 68.5231 225.924 83.0129 216.065C83.0129 216.065 62.2805 221.493 59.0585 251.489C59.0585 251.489 57.4475 238.812 33.6945 237.402C33.6945 237.402 48.999 242.839 52.2118 254.308C52.2118 254.308 46.7838 247.901 26.6464 248.267C26.6464 248.267 52.2118 249.878 56.0379 275.251C56.0379 275.251 49.9967 260.954 27.6625 260.752C27.6625 260.752 50.6099 266.995 49.6305 284.707H77.3836Z" fill="#EBEBEB"/>
<path d="M42.2611 373.988H88.6504L83.6801 283.947L44.3206 282.107L42.2611 373.988Z" fill="#E0E0E0"/>
<path d="M83.6801 283.947L65.4558 345.595L88.6504 373.988L83.6801 283.947Z" fill="#F5F5F5"/>
<path d="M42.2619 373.988L65.4565 345.595L44.8706 283.745L44.3214 282.107" fill="#EBEBEB"/>
<path d="M42.2611 373.988H88.6504C88.6504 373.988 69.1537 350.126 65.8951 346.126L65.4558 345.595L42.2611 373.988Z" fill="#E0E0E0"/>
<path d="M33.429 47.2222H61.0264V94.2796H33.429V47.2222Z" fill="#F5F5F5"/>
<path d="M67.1867 0H95.5896V45.9865H67.1867V0Z" fill="#F5F5F5"/>
<path d="M67.1867 100.44H95.5896V149.429H67.1867V100.44Z" fill="#F5F5F5"/>
<path d="M9.41873 0H31.8445V45.9865H9.41873V0Z" fill="#F5F5F5"/>
<path d="M67.1867 47.2222H95.5896V94.2796H67.1867V47.2222Z" fill="#F5F5F5"/>
<path d="M33.429 0H61.0264V45.9865H33.429V0Z" fill="#F5F5F5"/>
<path d="M33.429 100.44H61.0264V149.429H33.429V100.44Z" fill="#F5F5F5"/>
<path d="M97.1812 47.2222H119.753V94.2796H97.1812V47.2222Z" fill="#F5F5F5"/>
<path d="M97.1812 100.44H119.753V149.429H97.1812V100.44Z" fill="#F5F5F5"/>
<path d="M31.8444 150.655V194.683H33.4371V150.655H61.0254V193.31H67.1856V150.655H95.5885V194.683H97.172V150.655H119.753V194.71H9.42783V150.655H31.8444Z" fill="#F5F5F5"/>
<path d="M9.41873 100.44H31.8445V149.429H9.41873V100.44Z" fill="#F5F5F5"/>
<path d="M97.1812 0H119.753V45.9865H97.1812V0Z" fill="#F5F5F5"/>
<path d="M9.41873 47.2222H31.8445V94.2796H9.41873V47.2222Z" fill="#F5F5F5"/>
<path d="M381.669 47.9639H409.266V95.0213H381.669V47.9639Z" fill="#F5F5F5"/>
<path d="M415.427 0.741699H443.83V46.7282H415.427V0.741699Z" fill="#F5F5F5"/>
<path d="M415.427 101.182H443.83V150.17H415.427V101.182Z" fill="#F5F5F5"/>
<path d="M357.66 0.741699H380.086V46.7282H357.66V0.741699Z" fill="#F5F5F5"/>
<path d="M415.427 47.9639H443.83V95.0213H415.427V47.9639Z" fill="#F5F5F5"/>
<path d="M381.669 0.741699H409.266V46.7282H381.669V0.741699Z" fill="#F5F5F5"/>
<path d="M381.669 101.182H409.266V150.17H381.669V101.182Z" fill="#F5F5F5"/>
<path d="M445.421 47.9639H467.993V95.0213H445.421V47.9639Z" fill="#F5F5F5"/>
<path d="M445.421 101.182H467.993V150.17H445.421V101.182Z" fill="#F5F5F5"/>
<path d="M380.084 151.396V195.433H381.677V151.396H409.265V194.051H415.426V151.396H443.829V195.433H445.412V151.396H467.993V195.452H357.659V151.396H380.084Z" fill="#F5F5F5"/>
<path d="M357.66 101.182H380.086V150.17H357.66V101.182Z" fill="#F5F5F5"/>
<path d="M445.421 0.741699H467.993V46.7282H445.421V0.741699Z" fill="#F5F5F5"/>
<path d="M357.66 47.9639H380.086V95.0213H357.66V47.9639Z" fill="#F5F5F5"/>
<path d="M0.00012207 373.988C0.00012207 374.117 136.87 374.226 305.677 374.226C474.483 374.226 611.399 374.117 611.399 373.988C611.399 373.86 474.557 373.75 305.677 373.75C136.797 373.75 0.00012207 373.851 0.00012207 373.988Z" fill="#263238"/>
<path d="M100.953 41.9316H375.371V231.525H100.953V41.9316Z" fill="#FAFAFA"/>
<path d="M100.944 231.525C100.944 229.951 101.027 157.246 101.137 41.9317L100.944 42.1239H375.344L375.106 41.8859C375.106 109.621 375.106 173.932 375.106 231.48L375.326 231.26L100.899 231.48L375.326 231.699H375.545V231.48C375.545 173.932 375.545 109.603 375.545 41.8859V41.6479H375.28H100.88H100.688V41.8402C100.871 157.246 100.944 229.988 100.944 231.525Z" fill="#263238"/>
<path d="M137.119 201.777H341.569V213.392H137.119V201.777Z" fill="#263238"/>
<path d="M137.119 190.866H341.569V202.482H137.119V190.866Z" fill="#455A64"/>
<path d="M309.816 182.976C309.688 182.976 309.578 188.22 309.578 194.674C309.578 201.127 309.688 206.381 309.816 206.381C309.944 206.381 310.054 201.136 310.054 194.674C310.054 188.211 309.953 182.976 309.816 182.976Z" fill="#263238"/>
<path d="M204.443 182.976C204.314 182.976 204.205 188.22 204.205 194.674C204.205 201.127 204.314 206.381 204.443 206.381C204.571 206.381 204.69 201.136 204.69 194.674C204.69 188.211 204.58 182.976 204.443 182.976Z" fill="#263238"/>
<path d="M186.876 185.008C186.738 185.008 186.628 190.244 186.628 196.706C186.628 203.168 186.738 208.404 186.876 208.404C187.013 208.404 187.114 203.168 187.114 196.706C187.114 190.244 187.004 185.008 186.876 185.008Z" fill="#263238"/>
<path d="M262.895 188.523C262.654 191.494 262.574 194.477 262.657 197.457C262.575 200.434 262.654 203.413 262.895 206.381C263.131 203.413 263.21 200.434 263.133 197.457C263.21 194.477 263.131 191.495 262.895 188.523Z" fill="#263238"/>
<path d="M258.318 185.136C258.18 185.136 258.08 189.887 258.08 195.754C258.08 201.621 258.18 206.381 258.318 206.381C258.455 206.381 258.556 201.621 258.556 195.754C258.556 189.887 258.446 185.136 258.318 185.136Z" fill="#263238"/>
<path d="M173.165 150.747L153.833 151.013C153.81 154.843 154.924 158.595 157.035 161.791C159.147 164.988 162.159 167.485 165.692 168.967C169.224 170.449 173.117 170.848 176.877 170.115C180.637 169.381 184.095 167.548 186.811 164.847C189.527 162.146 191.381 158.699 192.136 154.943C192.891 151.188 192.513 147.292 191.051 143.751C189.59 140.211 187.109 137.184 183.925 135.054C180.741 132.925 176.996 131.789 173.165 131.791C168.024 131.787 163.09 133.814 159.435 137.429L173.165 150.747Z" fill="#FF5300"/>
<path d="M173.166 90.5361L173.459 110.628C178.781 110.58 183.874 108.451 187.646 104.696C191.418 100.941 193.57 95.8583 193.642 90.5361C193.642 79.5521 184.406 70.4536 173.166 70.4536C161.925 70.4536 152.69 79.5246 152.69 90.5361H173.166Z" fill="#455A64"/>
<path d="M148.067 96.9157C148.067 97.0439 152.57 97.1537 158.135 97.1537C163.701 97.1537 168.204 97.0439 168.204 96.9157C168.204 96.7876 163.701 96.6777 158.135 96.6777C152.57 96.6777 148.067 96.7784 148.067 96.9157Z" fill="#263238"/>
<path d="M148.067 100.367C148.067 100.495 152.57 100.605 158.135 100.605C163.701 100.605 168.204 100.495 168.204 100.367C168.204 100.239 163.701 100.12 158.135 100.12C152.57 100.12 148.067 100.229 148.067 100.367Z" fill="#263238"/>
<path d="M147.827 103.955C147.827 104.083 152.331 104.193 157.896 104.193C163.461 104.193 167.965 104.083 167.965 103.955C167.965 103.827 163.452 103.717 157.896 103.717C152.34 103.717 147.827 103.817 147.827 103.955Z" fill="#263238"/>
<path d="M278.502 120.98L247.38 121.401C247.618 137.987 261.586 151.497 278.502 151.497H278.676L278.502 120.98Z" fill="#FF5300"/>
<path d="M227.059 163.095C227.28 163.137 227.504 163.155 227.728 163.15L229.631 163.195L236.579 163.278H236.67L236.725 163.214L246.986 150.28C250.016 146.408 252.854 142.793 255.224 139.735L255.06 139.809L264.213 139.726L266.776 139.671C267.082 139.672 267.388 139.65 267.691 139.607C267.389 139.552 267.082 139.53 266.776 139.543L264.213 139.488L255.06 139.406H255.032L254.977 139.488C252.552 142.536 249.705 146.143 246.648 149.996L236.469 162.994L236.615 162.921L229.668 163.003L227.764 163.049C227.528 163.038 227.292 163.053 227.059 163.095Z" fill="#263238"/>
<path d="M215.902 166.683C215.902 166.811 220.405 166.921 225.97 166.921C231.536 166.921 236.039 166.811 236.039 166.683C236.039 166.555 231.536 166.445 225.97 166.445C220.405 166.445 215.902 166.555 215.902 166.683Z" fill="#263238"/>
<path d="M215.902 170.408C215.902 170.546 220.405 170.646 225.97 170.646C231.536 170.646 236.039 170.546 236.039 170.408C236.039 170.271 231.536 170.17 225.97 170.17C220.405 170.17 215.902 170.28 215.902 170.408Z" fill="#263238"/>
<path d="M283.408 116.55L283.847 147.067C300.744 146.829 314.52 133.127 314.52 116.55C314.52 99.8085 300.479 86.0327 283.399 86.0327C266.318 86.0327 252.277 99.8085 252.277 116.55H283.408Z" fill="#FF5300"/>
<path d="M295.564 106.573C295.737 106.638 295.919 106.678 296.104 106.692L297.651 106.948L303.244 107.726H303.335L303.399 107.653L310.868 100.422C314.456 96.9067 317.678 93.7122 320.022 91.3781C321.12 90.2523 322.045 89.3186 322.768 88.6321C323.118 88.307 323.44 87.9517 323.729 87.5703C323.34 87.8439 322.976 88.1502 322.64 88.4856L319.811 91.1584C317.431 93.4285 314.173 96.5864 310.594 100.101L303.198 107.424L303.363 107.369L297.752 106.747L296.195 106.609C295.756 106.554 295.564 106.545 295.564 106.573Z" fill="#263238"/>
<path d="M331.527 86.1882C331.527 86.3255 336.039 86.4262 341.595 86.4262C347.151 86.4262 351.664 86.3255 351.664 86.1882C351.664 86.0509 347.151 85.9502 341.595 85.9502C336.039 85.9502 331.527 86.06 331.527 86.1882Z" fill="#263238"/>
<path d="M331.527 89.9411C331.527 90.0693 336.039 90.1791 341.595 90.1791C347.151 90.1791 351.664 90.0693 351.664 89.9411C351.664 89.813 347.151 89.7031 341.595 89.7031C336.039 89.7031 331.527 89.7855 331.527 89.9411Z" fill="#263238"/>
<path d="M92.0923 35.1123H389.458V46.8103H92.0923V35.1123Z" fill="#263238"/>
<path d="M308.202 374.446H340.962C344.724 374.446 347.791 370.72 347.791 366.134V287.727H346.875V366.134C346.875 370.208 344.221 373.53 340.962 373.53H308.202C304.944 373.53 302.289 370.208 302.289 366.134V287.727H301.374V366.134C301.374 370.72 304.458 374.446 308.202 374.446Z" fill="#263238"/>
<path d="M129.2 374.446H161.96C165.722 374.446 168.788 370.72 168.788 366.134V287.727H167.873V366.134C167.873 370.208 165.218 373.53 161.96 373.53H129.2C125.941 373.53 123.296 370.208 123.296 366.134V287.727H122.381V366.134C122.381 370.72 125.438 374.446 129.2 374.446Z" fill="#263238"/>
<path d="M121.585 262.171H363.49V287.727H121.585V262.171Z" fill="#455A64"/>
<path d="M323.444 374.446H356.213C359.975 374.446 363.032 370.72 363.032 366.134V287.727H362.117V366.134C362.117 370.208 359.462 373.53 356.213 373.53H323.444C320.185 373.53 317.54 370.208 317.54 366.134V287.727H316.625V366.134C316.625 370.72 319.682 374.446 323.444 374.446Z" fill="#455A64"/>
<path d="M146.958 374.446H179.717C183.489 374.446 186.546 370.72 186.546 366.134V287.727H185.631V366.134C185.631 370.208 182.976 373.53 179.717 373.53H146.958C143.699 373.53 141.054 370.208 141.054 366.134V287.727H140.138V366.134C140.138 370.72 143.196 374.446 146.958 374.446Z" fill="#455A64"/>
<path d="M296.048 262.171V260.175H275.874L265.97 220.733H206.135L214.784 262.171H296.048Z" fill="#263238"/>
<path d="M237.85 245.035C236.232 245.035 234.921 243.724 234.921 242.106C234.921 240.489 236.232 239.177 237.85 239.177C239.468 239.177 240.779 240.489 240.779 242.106C240.779 243.724 239.468 245.035 237.85 245.035Z" fill="#E0E0E0"/>
<path d="M185.942 262.171C185.942 262.171 186.702 261.795 188.148 261.255C190.195 260.596 192.332 260.26 194.482 260.257C195.965 260.251 197.447 260.364 198.912 260.596C200.608 260.819 202.252 261.333 203.773 262.116C204.593 262.528 205.32 263.106 205.906 263.814C206.492 264.521 206.925 265.342 207.178 266.225C207.427 267.136 207.36 268.105 206.985 268.971C206.561 269.856 205.829 270.556 204.926 270.939C204.488 271.138 204.008 271.225 203.529 271.191C203.049 271.157 202.586 271.005 202.18 270.747C201.401 270.199 200.856 269.38 200.651 268.45C200.184 266.619 200.834 264.715 201.411 263.04C201.927 261.419 202.614 259.857 203.461 258.381C203.856 257.724 204.319 257.11 204.844 256.55C205.298 256.023 205.86 255.599 206.491 255.306C207.609 254.834 208.811 254.598 210.024 254.61C210.95 254.607 211.872 254.717 212.77 254.939C213.535 255.151 214.27 255.459 214.958 255.855C214.806 255.712 214.637 255.589 214.455 255.489C213.942 255.192 213.395 254.962 212.825 254.802C211.932 254.545 211.009 254.403 210.079 254.381C208.827 254.339 207.579 254.56 206.418 255.031C205.743 255.337 205.138 255.78 204.642 256.331C204.098 256.892 203.611 257.505 203.187 258.161C202.311 259.655 201.599 261.238 201.063 262.885C200.731 263.761 200.462 264.66 200.258 265.576C200.038 266.555 200.038 267.571 200.258 268.55C200.491 269.599 201.108 270.523 201.988 271.141C202.457 271.438 202.993 271.614 203.547 271.654C204.101 271.694 204.657 271.596 205.164 271.37C206.182 270.945 207.006 270.16 207.48 269.164C207.903 268.184 207.978 267.089 207.69 266.061C207.421 265.116 206.955 264.238 206.325 263.484C205.694 262.73 204.912 262.117 204.029 261.685C202.469 260.911 200.788 260.409 199.059 260.203C197.571 259.981 196.068 259.889 194.564 259.928C192.379 259.951 190.213 260.341 188.157 261.081C187.602 261.287 187.061 261.529 186.537 261.804C186.322 261.898 186.122 262.021 185.942 262.171Z" fill="#263238"/>
<path d="M427.187 370.254L427.379 361.833L443.151 362.089L443.004 374.419H442.025C437.668 374.584 419.855 374.977 416.954 374.044C413.723 373.055 427.187 370.254 427.187 370.254Z" fill="#FF5300"/>
<g opacity="0.4">
<path opacity="0.4" d="M420.607 371.865C420.607 371.865 415.884 373.146 416.46 373.924C417.037 374.702 435.051 374.995 443.005 374.428V374.071L421.952 373.915C421.952 373.915 421.522 371.911 420.607 371.865Z" fill="white"/>
</g>
<path d="M443.234 374.053C443.143 374.064 443.051 374.064 442.96 374.053H442.182L439.317 374.126C436.891 374.181 433.541 374.199 429.843 374.126C426.145 374.053 422.795 373.952 420.369 373.824L417.504 373.659L416.726 373.604H416.461H416.726H417.513L420.378 373.714C422.804 373.796 426.145 373.897 429.843 373.952C433.541 374.007 436.891 374.007 439.308 373.952H442.182H443.234V374.053Z" fill="#263238"/>
<path d="M421.971 374.153C421.85 373.678 421.678 373.218 421.458 372.78C421.194 372.376 420.887 372.002 420.543 371.663C421.027 371.857 421.426 372.218 421.669 372.679C421.945 373.117 422.053 373.641 421.971 374.153Z" fill="#263238"/>
<path d="M426.665 371.865C426.665 371.865 426.4 371.618 426.171 371.251C425.942 370.885 425.805 370.565 425.851 370.538C425.896 370.51 426.107 370.785 426.336 371.151C426.498 371.361 426.61 371.605 426.665 371.865Z" fill="#263238"/>
<path d="M427.948 371.215C427.948 371.215 427.664 371.077 427.399 370.83C427.133 370.583 426.941 370.345 426.978 370.309C427.014 370.272 427.261 370.446 427.527 370.693C427.792 370.94 427.985 371.169 427.948 371.215Z" fill="#263238"/>
<path d="M428.781 369.732C428.517 369.825 428.235 369.857 427.957 369.824C427.678 369.856 427.396 369.821 427.133 369.723C427.399 369.636 427.679 369.605 427.957 369.631C428.236 369.605 428.517 369.639 428.781 369.732Z" fill="#263238"/>
<path d="M429.073 368.689C428.8 368.862 428.482 368.952 428.158 368.945C427.845 368.984 427.528 368.933 427.243 368.799C427.547 368.77 427.854 368.77 428.158 368.799C428.459 368.735 428.766 368.698 429.073 368.689Z" fill="#263238"/>
<path d="M426.145 370.482C425.812 370.542 425.471 370.542 425.138 370.482C424.771 370.435 424.409 370.352 424.058 370.235C423.847 370.163 423.642 370.074 423.445 369.97C423.325 369.898 423.237 369.783 423.198 369.649C423.184 369.573 423.192 369.495 423.221 369.424C423.25 369.352 423.299 369.291 423.362 369.247C423.751 369.057 424.193 369.011 424.612 369.117C425.031 369.223 425.399 369.473 425.651 369.823C425.804 370.027 425.913 370.261 425.971 370.51C425.971 370.684 425.971 370.775 425.971 370.784C425.876 370.455 425.724 370.146 425.523 369.869C425.3 369.599 425.004 369.399 424.671 369.292C424.276 369.153 423.841 369.176 423.463 369.356C423.298 369.475 423.353 369.668 423.536 369.778C423.714 369.878 423.901 369.961 424.095 370.025C424.436 370.145 424.784 370.243 425.138 370.318C425.761 370.446 426.145 370.446 426.145 370.482Z" fill="#263238"/>
<path d="M425.888 370.529C425.823 370.425 425.78 370.309 425.762 370.188C425.743 370.066 425.748 369.943 425.778 369.824C425.814 369.557 425.915 369.302 426.071 369.083C426.16 368.934 426.284 368.81 426.433 368.722C426.581 368.635 426.75 368.585 426.922 368.579C427.024 368.605 427.111 368.669 427.168 368.757C427.224 368.846 427.244 368.952 427.224 369.055C427.202 369.217 427.139 369.372 427.041 369.504C426.913 369.73 426.749 369.934 426.556 370.108C426.399 370.29 426.197 370.428 425.97 370.51C425.97 370.51 426.172 370.337 426.456 370.016C426.626 369.834 426.774 369.631 426.895 369.412C427.032 369.202 427.142 368.817 426.895 368.771C426.648 368.726 426.373 368.991 426.218 369.192C426.069 369.383 425.969 369.605 425.925 369.842C425.883 370.069 425.87 370.299 425.888 370.529Z" fill="#263238"/>
<path d="M442.978 369.732C442.978 369.732 442.529 369.686 441.815 369.732C440.884 369.818 439.997 370.166 439.256 370.737C438.516 371.307 437.953 372.076 437.632 372.954C437.376 373.632 437.348 374.089 437.312 374.08C437.294 373.974 437.294 373.866 437.312 373.76C437.348 373.473 437.412 373.191 437.504 372.918C437.796 371.991 438.365 371.176 439.134 370.582C439.903 369.988 440.836 369.643 441.806 369.595C442.092 369.563 442.381 369.563 442.667 369.595C442.778 369.62 442.884 369.666 442.978 369.732Z" fill="#263238"/>
<path d="M441.449 363.142C441.542 364.219 441.57 365.301 441.531 366.382C441.559 367.466 441.525 368.551 441.431 369.631C441.337 368.551 441.306 367.466 441.339 366.382C441.312 365.301 441.348 364.219 441.449 363.142Z" fill="#263238"/>
<path d="M435.353 372.625C434.596 372.791 433.82 372.856 433.046 372.817C432.271 372.85 431.494 372.776 430.739 372.597C430.739 372.542 431.774 372.597 433.046 372.597C434.318 372.597 435.353 372.57 435.353 372.625Z" fill="#263238"/>
<path d="M438.419 372.671C438.419 372.671 438.328 372.89 438.218 373.128C438.108 373.366 438.053 373.568 437.998 373.558C437.943 373.549 437.916 373.311 438.044 373.046C438.172 372.78 438.383 372.634 438.419 372.671Z" fill="#263238"/>
<path d="M439.608 371.242C439.608 371.242 439.535 371.444 439.37 371.599C439.206 371.755 439.041 371.865 439.004 371.828C438.968 371.792 439.068 371.627 439.242 371.462C439.416 371.297 439.572 371.206 439.608 371.242Z" fill="#263238"/>
<path d="M441.285 370.602C441.285 370.657 441.065 370.648 440.827 370.73C440.589 370.812 440.424 370.931 440.388 370.895C440.351 370.858 440.479 370.638 440.772 370.547C441.065 370.455 441.303 370.556 441.285 370.602Z" fill="#263238"/>
<path d="M442.475 370.309C442.475 370.355 442.402 370.437 442.273 370.483C442.145 370.528 442.017 370.538 441.999 370.483C441.981 370.428 442.072 370.355 442.209 370.309C442.347 370.263 442.457 370.263 442.475 370.309Z" fill="#263238"/>
<path opacity="0.3" d="M442.967 369.311L427.205 368.798L427.26 366.903L443.104 368.313L442.967 369.311Z" fill="black"/>
<path d="M393.246 370.236L393.484 361.814L409.265 362.153L409.045 374.483H408.066C403.709 374.638 385.896 374.931 383.004 373.988C379.828 372.972 393.246 370.236 393.246 370.236Z" fill="#FF5300"/>
<g opacity="0.4">
<path opacity="0.4" d="M386.712 371.81C386.712 371.81 381.98 373.064 382.547 373.851C383.115 374.638 401.138 375.014 409.092 374.483V374.126L388.039 373.87C388.039 373.87 387.627 371.865 386.712 371.81Z" fill="white"/>
</g>
<path d="M409.33 374.126H409.055H408.277L405.403 374.19C402.977 374.19 399.627 374.19 395.929 374.19C392.231 374.19 388.881 373.979 386.465 373.842L383.6 373.659L382.822 373.604H382.547H382.822H383.6L386.474 373.723C388.89 373.824 392.24 373.943 395.938 374.016C399.636 374.089 402.977 374.107 405.403 374.107H409.064L409.33 374.126Z" fill="#263238"/>
<path d="M388.056 374.117C387.948 373.636 387.779 373.172 387.553 372.734C387.29 372.329 386.983 371.955 386.637 371.618C387.12 371.811 387.516 372.172 387.754 372.634C388.033 373.074 388.141 373.602 388.056 374.117Z" fill="#263238"/>
<path d="M392.763 371.865C392.717 371.865 392.506 371.618 392.277 371.251C392.049 370.885 391.911 370.565 391.957 370.538C392.003 370.51 392.223 370.785 392.442 371.151C392.662 371.517 392.808 371.865 392.763 371.865Z" fill="#263238"/>
<path d="M394.053 371.196C394.053 371.242 393.779 371.068 393.513 370.821C393.248 370.574 393.055 370.336 393.092 370.29C393.129 370.244 393.376 370.428 393.641 370.675C393.907 370.922 394.09 371.16 394.053 371.196Z" fill="#263238"/>
<path d="M394.895 369.732C394.63 369.819 394.349 369.847 394.071 369.815C393.793 369.847 393.51 369.812 393.248 369.714C393.789 369.58 394.354 369.58 394.895 369.714V369.732Z" fill="#263238"/>
<path d="M395.198 368.679C394.928 368.86 394.607 368.95 394.282 368.936C393.97 368.973 393.652 368.923 393.367 368.789C393.67 368.745 393.977 368.73 394.282 368.743C394.586 368.699 394.891 368.678 395.198 368.679Z" fill="#263238"/>
<path d="M392.258 370.464C391.921 370.517 391.578 370.517 391.242 370.464C390.877 370.41 390.519 370.321 390.171 370.199C389.956 370.136 389.75 370.046 389.558 369.933C389.438 369.861 389.35 369.747 389.31 369.613C389.296 369.537 389.305 369.459 389.334 369.387C389.363 369.316 389.412 369.255 389.475 369.21C389.865 369.023 390.309 368.98 390.728 369.089C391.147 369.198 391.514 369.451 391.764 369.805C391.914 370.006 392.02 370.237 392.075 370.483C392.099 370.572 392.099 370.667 392.075 370.757C391.973 370.445 391.821 370.152 391.626 369.888C391.405 369.615 391.109 369.411 390.775 369.302C390.38 369.162 389.945 369.185 389.567 369.366C389.402 369.476 389.457 369.668 389.64 369.778C389.817 369.882 390.004 369.967 390.198 370.034C390.538 370.159 390.887 370.257 391.242 370.327C391.873 370.418 392.258 370.428 392.258 370.464Z" fill="#263238"/>
<path d="M391.993 370.51C391.879 370.29 391.844 370.038 391.892 369.796C391.93 369.532 392.03 369.281 392.185 369.064C392.273 368.916 392.398 368.793 392.547 368.707C392.696 368.62 392.864 368.573 393.036 368.569C393.087 368.579 393.136 368.599 393.179 368.628C393.222 368.657 393.259 368.695 393.287 368.738C393.315 368.782 393.335 368.831 393.343 368.882C393.352 368.933 393.35 368.986 393.338 369.036C393.314 369.2 393.255 369.356 393.164 369.494C393.022 369.71 392.857 369.91 392.67 370.089C392.511 370.269 392.31 370.407 392.084 370.492C392.084 370.492 392.286 370.318 392.57 369.997C392.738 369.816 392.886 369.617 393.009 369.402C393.155 369.192 393.256 368.807 393.009 368.752C392.762 368.697 392.496 368.972 392.332 369.173C392.183 369.364 392.083 369.586 392.039 369.823C392.003 370.05 391.987 370.28 391.993 370.51Z" fill="#263238"/>
<path d="M409.092 369.796C409.092 369.796 408.644 369.751 407.93 369.796C406.998 369.881 406.108 370.228 405.365 370.796C404.622 371.365 404.054 372.132 403.728 373.009C403.472 373.677 403.435 374.135 403.399 374.126C403.385 374.02 403.385 373.912 403.399 373.805C403.43 373.518 403.494 373.236 403.591 372.963C403.89 372.04 404.464 371.229 405.236 370.64C406.008 370.051 406.941 369.712 407.911 369.668C408.197 369.637 408.486 369.637 408.772 369.668C408.884 369.695 408.992 369.738 409.092 369.796Z" fill="#263238"/>
<path d="M407.6 363.197C407.681 364.278 407.702 365.363 407.664 366.446C407.68 367.528 407.64 368.609 407.545 369.687C407.457 368.609 407.433 367.527 407.472 366.446C407.45 365.361 407.492 364.276 407.6 363.197Z" fill="#263238"/>
<path d="M401.421 372.652C400.664 372.818 399.888 372.88 399.114 372.835C398.339 372.857 397.563 372.78 396.807 372.606C396.807 372.552 397.851 372.606 399.114 372.606C400.377 372.606 401.421 372.597 401.421 372.652Z" fill="#263238"/>
<path d="M404.515 372.716C404.515 372.716 404.423 372.936 404.314 373.165C404.204 373.393 404.149 373.604 404.094 373.604C404.039 373.604 404.011 373.357 404.149 373.082C404.286 372.808 404.478 372.679 404.515 372.716Z" fill="#263238"/>
<path d="M405.715 371.288C405.715 371.288 405.642 371.49 405.477 371.654C405.313 371.819 405.148 371.911 405.111 371.874C405.075 371.838 405.175 371.673 405.349 371.517C405.523 371.362 405.679 371.252 405.715 371.288Z" fill="#263238"/>
<path d="M407.389 370.666C407.389 370.712 407.169 370.712 406.94 370.785C406.712 370.858 406.538 370.986 406.492 370.95C406.446 370.913 406.593 370.693 406.876 370.602C407.16 370.51 407.407 370.611 407.389 370.666Z" fill="#263238"/>
<path d="M408.589 370.373C408.589 370.428 408.516 370.501 408.378 370.547C408.241 370.592 408.131 370.592 408.113 370.547C408.095 370.501 408.186 370.418 408.314 370.373C408.442 370.327 408.571 370.327 408.589 370.373Z" fill="#263238"/>
<path opacity="0.3" d="M409.082 369.375L393.32 368.78L393.384 366.886L409.229 368.378L409.082 369.375Z" fill="black"/>
<path d="M336.112 116.55C337.329 116.047 340.221 122.6 340.414 120.825C340.606 119.049 335.947 113.227 337.247 112.761C338.931 112.138 341.823 119.058 342.125 119.616C342.427 120.175 343.242 119.79 342.958 119.296C342.537 118.573 338.382 110.948 340.029 110.335C340.945 109.987 341.402 111.69 341.402 111.69C341.402 111.69 344.78 119.113 345.549 118.793C346.318 118.472 344.496 114.042 343.773 112.596C343.05 111.15 343.453 110.243 344.35 110.454C344.954 110.6 347.279 114.976 347.965 116.431C348.652 117.886 350.446 121.877 351.16 119.177C351.874 116.477 353.448 114.674 354.217 114.481C354.39 114.477 354.561 114.521 354.71 114.609C354.859 114.698 354.98 114.827 355.058 114.981C355.137 115.135 355.17 115.309 355.154 115.481C355.138 115.654 355.073 115.818 354.967 115.955C354.445 116.737 354.033 117.587 353.741 118.481C353.481 119.195 353.342 119.947 353.329 120.706C353.295 122.179 353.396 123.653 353.631 125.108L373.503 151.379L381.741 146.427L389.412 159.717L378.345 165.997C375.542 167.583 372.234 168.027 369.111 167.238C365.988 166.449 363.29 164.486 361.576 161.759L341.073 125.227C339.807 123.7 338.622 122.109 337.521 120.459C335.343 116.935 335.654 116.733 336.112 116.55Z" fill="#FFBE9D"/>
<path d="M429.925 134.792C428.773 134.886 427.613 134.744 426.517 134.376C425.421 134.008 424.412 133.421 423.549 132.65C422.687 131.88 421.991 130.942 421.502 129.894C421.014 128.846 420.743 127.71 420.707 126.554C420.524 121.905 420.36 117.209 420.36 117.209C420.36 117.209 413.321 116.55 412.808 109.584C412.296 102.618 412.68 86.9478 412.68 86.9478L412.46 86.8929C416.295 84.8845 420.596 83.9359 424.92 84.1451C429.243 84.3543 433.433 85.7136 437.055 88.0828L438.135 88.8151L437.769 126.344C437.758 128.479 436.945 130.532 435.493 132.096C434.04 133.661 432.053 134.623 429.925 134.792Z" fill="#FFBE9D"/>
<path d="M415.864 98.8106C416.028 98.6137 416.111 98.3622 416.097 98.1065C416.084 97.8508 415.974 97.6098 415.79 97.4317C415.606 97.2536 415.361 97.1514 415.105 97.1458C414.849 97.1401 414.601 97.2312 414.409 97.401C414.315 97.4946 414.24 97.6058 414.189 97.7284C414.138 97.8509 414.112 97.9823 414.112 98.115C414.112 98.2477 414.138 98.3791 414.189 98.5016C414.24 98.6241 414.315 98.7354 414.409 98.829C414.505 98.9249 414.619 99.0007 414.745 99.0519C414.87 99.103 415.005 99.1285 415.141 99.1268C415.276 99.1251 415.41 99.0962 415.535 99.0419C415.659 98.9876 415.771 98.909 415.864 98.8106Z" fill="#263238"/>
<path d="M413.146 97.6389C413.256 97.7488 413.915 97.1813 414.876 97.1172C415.837 97.0531 416.56 97.5108 416.707 97.3826C416.853 97.2545 416.634 97.108 416.313 96.8975C415.886 96.6257 415.381 96.5004 414.876 96.5405C414.37 96.5783 413.889 96.7772 413.503 97.108C413.174 97.3643 413.082 97.584 413.146 97.6389Z" fill="#263238"/>
<path d="M424.964 97.4929C424.8 97.6088 424.674 97.7706 424.602 97.958C424.53 98.1454 424.515 98.3499 424.559 98.5457C424.603 98.7416 424.704 98.92 424.849 99.0584C424.995 99.1969 425.178 99.2892 425.376 99.3236C425.573 99.3581 425.777 99.3332 425.96 99.252C426.144 99.1709 426.3 99.0372 426.407 98.8678C426.515 98.6984 426.57 98.5008 426.566 98.3001C426.561 98.0994 426.497 97.9045 426.382 97.7401C426.306 97.6304 426.208 97.537 426.095 97.4652C425.982 97.3934 425.856 97.3447 425.724 97.3217C425.592 97.2987 425.457 97.3021 425.327 97.3314C425.196 97.3608 425.073 97.4157 424.964 97.4929Z" fill="#263238"/>
<path d="M423.626 97.8495C423.736 97.9684 424.395 97.4009 425.356 97.3369C426.317 97.2728 427.04 97.7213 427.141 97.5932C427.242 97.465 427.068 97.3277 426.748 97.108C426.318 96.8404 425.815 96.7155 425.31 96.7511C424.804 96.7869 424.322 96.986 423.937 97.3186C423.654 97.5749 423.562 97.8037 423.626 97.8495Z" fill="#263238"/>
<path d="M420.213 105.319C419.707 105.143 419.174 105.063 418.639 105.081C418.392 105.081 418.19 105.026 418.163 104.888C418.14 104.639 418.188 104.389 418.3 104.165C418.501 103.515 418.712 102.856 418.932 102.161C419.544 100.466 419.992 98.7152 420.268 96.9341C420.122 96.9341 419.289 99.1583 418.437 102.005L417.842 104.01C417.701 104.343 417.675 104.713 417.769 105.062C417.81 105.157 417.872 105.241 417.952 105.306C418.032 105.371 418.126 105.416 418.227 105.438C418.37 105.458 418.514 105.458 418.657 105.438C419.179 105.484 419.705 105.444 420.213 105.319Z" fill="#263238"/>
<path d="M414.117 83.6343C419.81 81.6504 425.952 81.3328 431.82 82.719C431.82 82.719 437.861 84.9524 438.163 88.1561C438.322 90.9953 438.298 93.8418 438.09 96.6779H437.714L437.87 103.003L435.518 102.664L435.197 94.7831C435.197 94.7831 431.087 91.9547 431.005 87.5428C429 87.2682 419.179 86.1149 412.488 88.4032V86.8471C412.469 85.9318 413.193 83.973 414.117 83.6343Z" fill="#455A64"/>
<path d="M420.286 117.227C423.53 116.962 426.623 115.742 429.174 113.722C429.174 113.722 427.518 118.985 420.451 119.049L420.286 117.227Z" fill="#EB996E"/>
<path d="M423.683 95.1495C423.683 95.2777 424.479 95.4516 425.514 95.5248C426.548 95.598 427.344 95.5706 427.344 95.4333C427.344 95.296 426.557 95.1312 425.559 95.0488C424.562 94.9665 423.701 95.0122 423.683 95.1495Z" fill="#263238"/>
<path d="M413.741 93.9231C413.806 94.0513 414.547 93.7584 415.471 93.8499C416.396 93.9414 417.064 94.3533 417.147 94.2435C417.229 94.1336 416.606 93.4746 415.517 93.3739C414.428 93.2732 413.659 93.8316 413.741 93.9231Z" fill="#263238"/>
<path d="M418.949 108.175C419.283 108.396 419.665 108.534 420.063 108.577C420.461 108.62 420.864 108.567 421.237 108.422C422.546 108.065 423.196 107.104 423.068 107.04C422.433 107.389 421.776 107.694 421.1 107.955C420.389 108.079 419.67 108.152 418.949 108.175Z" fill="white"/>
<path d="M436.177 85.8404C435.314 85.1563 434.585 84.3184 434.026 83.369C433.752 82.8903 433.591 82.355 433.556 81.8043C433.521 81.2537 433.613 80.7023 433.825 80.1928C434.199 79.4846 434.789 78.914 435.509 78.5635C436.359 78.0714 437.345 77.869 438.319 77.9868C439.114 78.1347 439.84 78.5339 440.39 79.1255C440.94 79.7171 441.286 80.4699 441.377 81.2729C441.434 82.0782 441.25 82.8824 440.849 83.5832C440.448 84.284 439.848 84.8498 439.125 85.2088C438.387 85.5517 437.569 85.6836 436.761 85.5898C435.954 85.4961 435.188 85.1805 434.548 84.6779" fill="#455A64"/>
<path d="M437.495 96.5408C437.495 96.2685 437.599 96.0064 437.786 95.8088C437.974 95.6111 438.23 95.4931 438.502 95.479C439.811 95.479 441.934 95.9641 442.163 99.5523C442.447 104.687 437.513 103.406 437.495 103.259C437.477 103.113 437.486 98.5362 437.495 96.5408Z" fill="#FFBE9D"/>
<path d="M438.602 101.245C438.602 101.245 438.694 101.3 438.849 101.364C439.064 101.449 439.303 101.449 439.518 101.364C439.838 101.136 440.091 100.826 440.252 100.468C440.413 100.109 440.475 99.714 440.433 99.3231C440.42 98.8827 440.307 98.4509 440.103 98.06C440.049 97.902 439.956 97.76 439.833 97.6467C439.71 97.5333 439.561 97.452 439.399 97.4101C439.295 97.3894 439.187 97.4054 439.093 97.4555C439 97.5056 438.926 97.5866 438.886 97.6847C438.822 97.8312 438.886 97.9318 438.831 97.941C438.776 97.9501 438.721 97.8586 438.749 97.6481C438.773 97.5215 438.837 97.4061 438.932 97.3186C438.998 97.2605 439.075 97.2161 439.158 97.1878C439.241 97.1596 439.329 97.148 439.417 97.1538C439.63 97.183 439.832 97.2665 440.004 97.3964C440.175 97.5262 440.31 97.698 440.396 97.8952C440.64 98.3294 440.775 98.8162 440.79 99.314C440.838 99.7691 440.752 100.228 440.542 100.635C440.332 101.042 440.008 101.378 439.609 101.602C439.474 101.648 439.329 101.664 439.187 101.648C439.045 101.632 438.908 101.585 438.785 101.511C438.611 101.364 438.584 101.255 438.602 101.245Z" fill="#EB996E"/>
<path d="M419.334 125.429C416.048 125.621 410.528 126.06 399.627 132.44C397.238 133.831 372.78 150.252 372.78 150.252L383.608 164.083L403.553 152.843L400.871 176.724L397.567 199.855L447.197 197.035L447.416 175.983L447.819 156.587L450.913 182.518L470.025 180.687L464.753 146.564C464.159 142.387 462.416 138.457 459.718 135.213C456.432 131.369 452.231 129.044 447.444 127.305C444.513 126.417 441.492 125.864 438.437 125.657L438.592 119.955C438.592 119.955 429.997 120.76 427.709 126.28C427.709 126.28 424.853 119.753 419.334 119.213V125.429Z" fill="#FF5300"/>
<path d="M448.817 128.45C448.712 128.465 448.609 128.499 448.515 128.55C448.23 128.656 447.957 128.791 447.701 128.953C446.74 129.53 445.898 130.285 445.22 131.177C444.209 132.521 443.497 134.066 443.133 135.708C442.713 137.696 442.667 139.745 442.996 141.75C443.322 143.744 443.828 145.704 444.506 147.608C445.092 149.365 445.678 150.921 446.135 152.239C446.593 153.557 446.941 154.619 447.161 155.37C447.25 155.765 447.375 156.151 447.536 156.523C447.517 156.117 447.453 155.715 447.344 155.324C447.17 154.555 446.877 153.493 446.428 152.129C445.632 149.457 444.103 145.869 443.463 141.695C443.138 139.743 443.169 137.749 443.554 135.809C443.897 134.234 444.551 132.744 445.476 131.425C446.37 130.21 447.508 129.197 448.817 128.45Z" fill="#263238"/>
<path d="M402.96 158.189C403.068 157.812 403.135 157.426 403.161 157.035C403.262 156.193 403.399 155.141 403.555 153.887C403.884 151.14 404.333 147.479 404.818 143.507C405.303 139.534 405.733 135.882 406.081 133.118C406.227 131.863 406.355 130.811 406.456 129.978C406.525 129.594 406.559 129.205 406.557 128.815C406.415 129.177 406.32 129.556 406.273 129.941C406.136 130.683 405.953 131.772 405.742 133.072C405.33 135.726 404.827 139.388 404.342 143.452C403.857 147.516 403.426 151.186 403.216 153.859C403.097 155.186 403.014 156.266 402.969 157.017C402.922 157.406 402.919 157.799 402.96 158.189Z" fill="#263238"/>
<path d="M429.311 124.12C429.856 123.993 430.428 124.068 430.922 124.33C431.438 124.636 431.84 125.102 432.066 125.657C432.21 125.99 432.329 126.333 432.423 126.683C432.423 126.875 432.524 127.058 432.57 127.25C432.615 127.493 432.722 127.72 432.881 127.909C432.933 127.971 432.998 128.021 433.07 128.057C433.142 128.093 433.221 128.115 433.302 128.12C433.44 128.123 433.577 128.098 433.705 128.046C433.915 127.955 434.071 127.863 434.254 127.781L435.27 127.287L436.963 126.371C437.507 126.133 438.018 125.826 438.483 125.456C437.905 125.578 437.347 125.781 436.826 126.06L435.078 126.829L434.052 127.305L433.531 127.552C433.357 127.607 433.293 127.607 433.219 127.552C433.058 127.228 432.941 126.883 432.872 126.527C432.766 126.153 432.628 125.788 432.46 125.438C432.178 124.817 431.689 124.312 431.078 124.01C430.666 123.798 430.191 123.743 429.741 123.854C429.421 123.973 429.293 124.101 429.311 124.12Z" fill="#263238"/>
<path d="M419.214 125.081C420.357 126.226 421.604 127.262 422.94 128.175L423.251 128.413L423.315 128.028C423.315 127.873 423.37 127.708 423.406 127.543C423.379 126.669 423.62 125.808 424.096 125.075C424.572 124.342 425.261 123.772 426.07 123.442C425.795 123.417 425.519 123.454 425.26 123.551C425.002 123.647 424.769 123.801 424.578 124.001C424.118 124.38 423.754 124.863 423.516 125.41C423.234 126.063 423.037 126.749 422.93 127.451L422.848 127.946L423.223 127.799C421.975 126.769 420.633 125.859 419.214 125.081Z" fill="#263238"/>
<path d="M426.564 139.708C426.564 139.708 426.619 139.662 426.683 139.543C426.867 138.875 427.214 136.239 427.535 133.081C427.727 131.25 427.864 129.575 427.947 128.358C428.025 127.704 428.025 127.043 427.947 126.39C427.747 127.016 427.624 127.665 427.58 128.321C427.416 129.52 427.214 131.186 427.022 133.035C426.702 136.193 426.51 138.847 426.546 139.534C426.555 139.635 426.546 139.699 426.564 139.708Z" fill="#263238"/>
<path d="M451.682 181.685C452.471 181.538 453.245 181.324 453.998 181.045C455.407 180.605 457.366 180.029 459.554 179.48C461.741 178.93 463.737 178.564 465.183 178.225C465.978 178.122 466.762 177.947 467.526 177.704C466.722 177.674 465.917 177.739 465.128 177.896C461.292 178.44 457.524 179.388 453.888 180.724C453.119 180.96 452.379 181.283 451.682 181.685Z" fill="#263238"/>
<path d="M465.98 175.727C465.201 175.79 464.433 175.947 463.692 176.193C462.3 176.56 460.396 177.109 458.319 177.85C457.284 178.207 456.305 178.582 455.417 178.93C454.615 179.219 453.84 179.577 453.101 180.001C451.801 180.779 451.518 181.832 451.582 181.777C452.029 181.163 452.607 180.656 453.275 180.294C454.017 179.931 454.785 179.625 455.573 179.379L458.474 178.335C460.543 177.612 462.419 176.999 463.792 176.55C464.546 176.345 465.278 176.069 465.98 175.727Z" fill="#263238"/>
<path d="M382.099 160.422C381.911 159.778 381.637 159.163 381.284 158.592C380.533 157.165 379.698 155.784 378.786 154.454C377.874 153.121 376.884 151.843 375.82 150.628C375.416 150.091 374.939 149.613 374.401 149.209C374.3 149.301 376.232 151.626 378.392 154.701C380.552 157.777 381.971 160.523 382.099 160.422Z" fill="#263238"/>
<path d="M383.527 158.216C383.346 157.619 383.061 157.058 382.685 156.56C381.882 155.296 380.94 154.126 379.875 153.072C378.812 152.026 377.633 151.105 376.36 150.326C375.857 149.958 375.293 149.679 374.694 149.502C376.388 150.718 378.008 152.032 379.546 153.438C380.967 154.95 382.297 156.545 383.527 158.216Z" fill="#263238"/>
<path d="M435.718 139.937C435.934 140.024 436.128 140.157 436.287 140.328C436.445 140.499 436.563 140.703 436.633 140.926C436.761 141.394 436.735 141.89 436.561 142.343C436.386 142.796 436.072 143.181 435.663 143.443C435.38 143.571 435.072 143.635 434.762 143.63C434.451 143.624 434.146 143.55 433.868 143.411C433.59 143.272 433.346 143.074 433.155 142.829C432.963 142.584 432.829 142.3 432.761 141.997C432.709 141.466 432.847 140.935 433.15 140.497C433.454 140.059 433.903 139.744 434.418 139.607C434.754 139.552 435.099 139.61 435.398 139.772L435.718 139.937Z" fill="white"/>
<path d="M462.556 160.624C462.772 160.711 462.966 160.845 463.124 161.016C463.283 161.186 463.401 161.39 463.472 161.612C463.602 162.08 463.578 162.578 463.403 163.031C463.228 163.485 462.912 163.87 462.501 164.129C462.219 164.256 461.911 164.319 461.601 164.312C461.291 164.306 460.986 164.231 460.708 164.093C460.431 163.954 460.187 163.756 459.996 163.512C459.804 163.269 459.669 162.985 459.6 162.683C459.55 162.152 459.689 161.62 459.995 161.183C460.3 160.745 460.75 160.43 461.266 160.294C461.598 160.238 461.94 160.296 462.236 160.459L462.556 160.624Z" fill="white"/>
<path d="M398.895 140.047C399.108 140.138 399.3 140.273 399.458 140.443C399.616 140.614 399.736 140.815 399.81 141.035C399.937 141.504 399.91 142.002 399.734 142.455C399.557 142.907 399.241 143.292 398.831 143.552C398.548 143.681 398.24 143.745 397.929 143.74C397.619 143.734 397.313 143.659 397.035 143.521C396.757 143.382 396.514 143.183 396.322 142.939C396.131 142.694 395.997 142.41 395.929 142.106C395.883 141.577 396.025 141.049 396.329 140.613C396.634 140.178 397.082 139.864 397.595 139.726C397.93 139.668 398.274 139.723 398.575 139.882L398.895 140.047Z" fill="white"/>
<path d="M407.151 188.706C407.365 188.796 407.558 188.931 407.716 189.101C407.874 189.272 407.993 189.474 408.067 189.695C408.193 190.164 408.166 190.661 407.99 191.114C407.814 191.567 407.497 191.952 407.087 192.212C406.804 192.339 406.497 192.401 406.187 192.395C405.876 192.389 405.572 192.314 405.294 192.175C405.017 192.037 404.773 191.839 404.581 191.595C404.39 191.351 404.255 191.068 404.186 190.766C404.137 190.235 404.278 189.704 404.583 189.267C404.887 188.83 405.337 188.515 405.851 188.377C406.187 188.322 406.532 188.38 406.831 188.541L407.151 188.706Z" fill="white"/>
<path d="M438.557 188.706C438.772 188.794 438.965 188.929 439.123 189.099C439.281 189.27 439.4 189.473 439.472 189.695C439.6 190.164 439.574 190.662 439.398 191.115C439.221 191.568 438.904 191.952 438.493 192.212C438.21 192.339 437.903 192.401 437.594 192.395C437.284 192.389 436.98 192.314 436.703 192.175C436.426 192.037 436.184 191.838 435.993 191.595C435.802 191.351 435.668 191.068 435.6 190.766C435.548 190.235 435.685 189.704 435.989 189.266C436.293 188.828 436.742 188.513 437.257 188.377C437.593 188.321 437.937 188.379 438.236 188.541L438.557 188.706Z" fill="#FAFAFA"/>
<path d="M426.043 171.022C426.258 171.111 426.451 171.245 426.609 171.416C426.767 171.586 426.887 171.789 426.959 172.01C427.089 172.478 427.065 172.976 426.89 173.43C426.715 173.883 426.399 174.268 425.989 174.528C425.706 174.656 425.398 174.72 425.087 174.715C424.777 174.709 424.471 174.634 424.193 174.496C423.915 174.357 423.671 174.158 423.48 173.914C423.289 173.669 423.154 173.385 423.087 173.081C423.037 172.551 423.177 172.021 423.482 171.585C423.788 171.149 424.238 170.836 424.753 170.701C425.085 170.642 425.426 170.697 425.723 170.857L426.043 171.022Z" fill="white"/>
<path d="M418.465 150.253C418.583 150.305 418.69 150.382 418.776 150.478C418.863 150.574 418.929 150.688 418.968 150.811C419.041 151.074 419.027 151.353 418.928 151.608C418.829 151.862 418.65 152.077 418.419 152.221C418.261 152.293 418.088 152.33 417.914 152.327C417.74 152.324 417.569 152.283 417.413 152.206C417.257 152.129 417.12 152.018 417.012 151.881C416.904 151.744 416.828 151.585 416.79 151.416C416.761 151.12 416.837 150.823 417.004 150.577C417.171 150.332 417.419 150.152 417.705 150.07C417.893 150.043 418.085 150.075 418.254 150.162L418.465 150.253Z" fill="white"/>
<path d="M414.977 134.646C415.096 134.698 415.202 134.775 415.289 134.871C415.376 134.967 415.441 135.081 415.481 135.204C415.551 135.467 415.535 135.746 415.436 135.999C415.338 136.252 415.161 136.468 414.931 136.614C414.773 136.686 414.601 136.723 414.427 136.72C414.253 136.717 414.081 136.676 413.925 136.599C413.769 136.522 413.632 136.411 413.525 136.274C413.417 136.137 413.341 135.978 413.302 135.809C413.274 135.513 413.349 135.216 413.517 134.97C413.684 134.725 413.932 134.545 414.217 134.463C414.406 134.436 414.598 134.468 414.767 134.555L414.977 134.646Z" fill="white"/>
<path d="M437.266 162.033C437.385 162.085 437.491 162.162 437.578 162.258C437.665 162.355 437.73 162.468 437.77 162.592C437.84 162.855 437.824 163.133 437.725 163.386C437.627 163.64 437.45 163.855 437.221 164.001C437.062 164.074 436.89 164.11 436.716 164.107C436.542 164.104 436.37 164.063 436.214 163.986C436.058 163.909 435.921 163.798 435.814 163.661C435.706 163.525 435.63 163.366 435.591 163.196C435.563 162.9 435.638 162.603 435.806 162.358C435.973 162.112 436.221 161.932 436.507 161.85C436.695 161.823 436.887 161.855 437.056 161.942L437.266 162.033Z" fill="white"/>
<path d="M456.662 139.644C456.781 139.696 456.887 139.773 456.974 139.869C457.061 139.965 457.126 140.079 457.166 140.202C457.24 140.465 457.227 140.745 457.128 140.999C457.029 141.253 456.849 141.469 456.617 141.612C456.458 141.682 456.285 141.717 456.111 141.713C455.937 141.709 455.766 141.666 455.61 141.588C455.454 141.51 455.318 141.399 455.21 141.262C455.103 141.126 455.026 140.967 454.987 140.797C454.961 140.503 455.038 140.208 455.205 139.964C455.372 139.72 455.619 139.542 455.903 139.461C456.091 139.433 456.283 139.465 456.452 139.552L456.662 139.644Z" fill="white"/>
<path d="M421.065 186.381C421.183 186.433 421.289 186.51 421.376 186.606C421.463 186.702 421.528 186.816 421.568 186.939C421.642 187.202 421.629 187.482 421.53 187.736C421.431 187.991 421.251 188.206 421.019 188.349C420.86 188.421 420.688 188.457 420.514 188.455C420.34 188.452 420.169 188.411 420.013 188.334C419.857 188.256 419.72 188.146 419.612 188.009C419.504 187.872 419.428 187.713 419.39 187.543C419.361 187.248 419.437 186.951 419.604 186.705C419.771 186.459 420.019 186.28 420.305 186.198C420.493 186.171 420.685 186.203 420.854 186.289L421.065 186.381Z" fill="#FAFAFA"/>
<path d="M411.609 169.512C411.727 169.564 411.834 169.641 411.92 169.737C412.007 169.833 412.072 169.947 412.112 170.07C412.186 170.334 412.172 170.615 412.073 170.871C411.974 171.126 411.795 171.343 411.563 171.489C411.404 171.56 411.232 171.594 411.059 171.59C410.885 171.586 410.715 171.543 410.56 171.465C410.405 171.387 410.269 171.276 410.162 171.139C410.056 171.002 409.981 170.844 409.943 170.674C409.911 170.379 409.985 170.082 410.153 169.837C410.321 169.592 410.571 169.415 410.858 169.338C411.045 169.301 411.239 169.33 411.407 169.42L411.609 169.512Z" fill="white"/>
<path d="M447.105 196.88V368.927L422.171 367.956L420.03 220.532L411.572 368.542L386.766 367.956L397.567 199.891L447.105 196.88Z" fill="#263238"/>
<path d="M433.76 367.883C433.897 367.883 434.007 329.814 434.016 282.858C434.025 235.901 433.915 197.832 433.787 197.832C433.659 197.832 433.54 235.892 433.54 282.858C433.54 329.824 433.632 367.883 433.76 367.883Z" fill="#455A64"/>
<path d="M399.289 367.883C399.289 367.883 399.289 367.737 399.344 367.453C399.398 367.169 399.398 366.721 399.444 366.181C399.527 365.037 399.636 363.38 399.792 361.274C400.067 356.982 400.469 350.821 400.964 343.215C401.925 327.965 403.197 306.894 404.497 283.617C405.797 260.34 406.868 239.251 407.536 223.983C407.874 216.349 408.112 210.18 408.259 205.905C408.323 203.791 408.378 202.134 408.415 200.99C408.415 200.441 408.415 200.02 408.415 199.708C408.415 199.397 408.415 199.269 408.415 199.269C408.415 199.269 408.415 199.416 408.415 199.708C408.415 200.001 408.369 200.441 408.332 200.981C408.277 202.134 408.195 203.782 408.094 205.896C407.884 210.189 407.591 216.358 407.179 223.974C406.428 239.233 405.302 260.313 404.003 283.59C402.703 306.867 401.485 327.929 400.625 343.197C400.195 350.803 399.847 356.972 399.6 361.256C399.49 363.38 399.408 365.027 399.344 366.172C399.344 366.721 399.344 367.142 399.289 367.453C399.234 367.764 399.289 367.883 399.289 367.883Z" fill="#455A64"/>
<path d="M417.915 198.216C417.77 199.164 417.703 200.122 417.714 201.081C417.641 202.857 417.586 205.31 417.54 208.01C417.54 209.356 417.54 210.637 417.54 211.827C417.485 212.896 417.66 213.963 418.053 214.958C418.342 215.632 418.839 216.196 419.471 216.569C419.69 216.726 419.953 216.809 420.222 216.807C420.222 216.761 419.956 216.697 419.572 216.413C419.028 216.01 418.609 215.461 418.364 214.83C418.042 213.866 417.911 212.85 417.979 211.837C417.979 210.647 417.979 209.365 418.043 208.02C418.089 205.274 418.089 202.866 418.043 201.09C418.086 200.13 418.043 199.169 417.915 198.216Z" fill="#455A64"/>
<path d="M422.383 200.239C422.337 200.294 422.712 200.514 422.722 201.091C422.734 201.242 422.709 201.394 422.648 201.533C422.587 201.672 422.493 201.793 422.374 201.887C422.221 201.98 422.042 202.023 421.863 202.01C421.684 201.997 421.514 201.928 421.376 201.814C421.271 201.749 421.183 201.659 421.121 201.552C421.058 201.445 421.023 201.325 421.017 201.201C421.012 201.078 421.037 200.955 421.09 200.843C421.143 200.731 421.222 200.634 421.321 200.56C421.451 200.435 421.612 200.347 421.788 200.306C421.963 200.264 422.146 200.269 422.319 200.322V200.13C422.111 200.239 422.011 200.313 422.017 200.349C422.017 200.349 422.163 200.349 422.383 200.349L422.584 200.303L422.401 200.157C422.191 200.035 421.949 199.98 421.707 199.999C421.464 200.019 421.234 200.112 421.046 200.267C420.886 200.375 420.755 200.521 420.664 200.692C420.573 200.862 420.525 201.053 420.525 201.246C420.525 201.44 420.573 201.63 420.664 201.801C420.755 201.972 420.886 202.118 421.046 202.226C421.269 202.391 421.538 202.48 421.815 202.48C422.092 202.48 422.362 202.391 422.584 202.226C422.753 202.084 422.882 201.9 422.958 201.693C423.033 201.486 423.053 201.262 423.014 201.045C422.978 200.763 422.838 200.505 422.621 200.322C422.538 200.221 422.392 200.212 422.383 200.239Z" fill="#455A64"/>
<path d="M403.609 173.694C404.277 172.825 412.314 174.207 412.314 174.207L409.385 171.983C410.877 169.337 416.03 172.541 417.678 174.088C418.102 174.529 418.386 175.087 418.492 175.69L450.913 182.518L469 180.688C469 180.688 469.367 183.809 470.273 189.694C471.133 195.26 461.98 200.678 456.314 199.919C451.133 199.186 419.462 190.18 414.071 188.642L413.284 188.422C411.536 187.818 407.362 186.326 406.922 185.566C406.373 184.651 406.52 177.109 406.52 177.109L403.545 175.8C403.372 175.473 403.288 175.108 403.299 174.739C403.31 174.37 403.417 174.01 403.609 173.694Z" fill="#FFBE9D"/>
</svg>
