<svg width="80" height="80" viewBox="0 0 80 80" fill="none" xmlns="http://www.w3.org/2000/svg">
<path d="M6.25 20H73.75C74.413 20 75.0489 20.2634 75.5178 20.7322C75.9866 21.2011 76.25 21.837 76.25 22.5V60H3.75V22.5C3.75 21.837 4.01339 21.2011 4.48223 20.7322C4.95107 20.2634 5.58696 20 6.25 20Z" fill="#3780EA"/>
<path d="M8.75 35H41.25V55H8.75V35Z" fill="#896FF7"/>
<path d="M52.5 71.25V76.25H27.5V71.25H36.25H43.75H52.5Z" fill="#E8E5FB"/>
<path d="M36.25 63.75H43.75V71.25H36.25V63.75Z" fill="#8E95A3"/>
<path d="M76.25 61.25V62.5C76.248 63.1624 75.984 63.7972 75.5156 64.2656C75.0472 64.734 74.4124 64.998 73.75 65H6.25C5.58757 64.998 4.95283 64.734 4.48442 64.2656C4.01601 63.7972 3.75198 63.1624 3.75 62.5V60H76.25V61.25Z" fill="#E8E5FB"/>
<path d="M10 7.5H35V27.5H10V7.5Z" fill="#78B9EB"/>
<path d="M41.25 35L25 45L8.75 35H41.25Z" fill="#B9B1F1"/>
<path d="M45 8.75H53.75V18.75H45V8.75Z" fill="#E8E5FB"/>
<path d="M51.25 18.75L50 27.5H46.25V18.75H51.25Z" fill="#C7BEC5"/>
<path d="M74.2625 11.9875C74.4975 12.2167 74.6839 12.4908 74.8106 12.7937C74.9373 13.0965 75.0017 13.4217 75 13.75C74.998 14.4124 74.734 15.0471 74.2656 15.5156C73.7972 15.984 73.1624 16.248 72.5 16.25H70V11.25H72.5C72.8283 11.2482 73.1535 11.3126 73.4563 11.4393C73.7591 11.5661 74.0333 11.7525 74.2625 11.9875Z" fill="#EC455A"/>
<path d="M70 3.75V23.75L53.75 18.75V8.75L70 3.75Z" fill="#F6CC4F"/>
<path d="M41.25 11.25H45V16.25H41.25V11.25Z" fill="#EC455A"/>
<path d="M46.25 32.5H68.75V47.5H46.25V32.5Z" fill="#9E2849"/>
<path d="M71.25 37.5V52.5H50V47.5V37.5H68.75H71.25Z" fill="#EC455A"/>
<path d="M53.75 41.25H56.25V43.75H53.75V41.25Z" fill="#E8E5FB"/>
<path d="M58.75 41.25H67.5V43.75H58.75V41.25Z" fill="#E8E5FB"/>
<path d="M53.75 46.25H58.75V48.75H53.75V46.25Z" fill="#E8E5FB"/>
<path d="M61.25 46.25H67.5V48.75H61.25V46.25Z" fill="#E8E5FB"/>
<path d="M36.25 65H43.75V67.5H36.25V65Z" fill="#636263"/>
<path d="M27.5 17.5L18.75 22.5V12.5L27.5 17.5Z" fill="#EC455A"/>
</svg>
