<svg width="80" height="80" viewBox="0 0 80 80" fill="none" xmlns="http://www.w3.org/2000/svg">
<g clip-path="url(#clip0_332_3268)">
<path d="M71.4688 59.5574H4.02422C1.80172 59.5574 0 57.7557 0 55.5332V5.63378C0 3.41128 1.80172 1.60956 4.02422 1.60956H71.4688C73.6912 1.60956 75.493 3.41128 75.493 5.63378V55.5332C75.493 57.7557 73.6912 59.5574 71.4688 59.5574Z" fill="#736572"/>
<path d="M80.0004 5.63378V55.5332C80.0004 57.7561 78.1991 59.5574 75.9762 59.5574H71.1473C73.3702 59.5574 75.1715 57.7561 75.1715 55.5332V53.9235L68.3479 35.4263L75.1715 7.24347V5.63378C75.1715 3.41081 73.3702 1.60956 71.1473 1.60956H75.9762C78.1991 1.60971 80.0004 3.41096 80.0004 5.63378Z" fill="#615260"/>
<path d="M74.3667 54.7285H5.63419C5.18966 54.7285 4.82935 54.3682 4.82935 53.9236V16.9014L45.2917 11.67L75.1714 16.9014V53.9236C75.1715 54.368 74.8111 54.7285 74.3667 54.7285Z" fill="white"/>
<path d="M65.5133 32.5152H52.636L48.7856 30.1007L52.636 27.6862H65.5133C66.8467 27.6862 67.9278 28.7671 67.9278 30.1007C67.9277 31.4341 66.8467 32.5152 65.5133 32.5152Z" fill="#FCF1F2"/>
<path d="M52.6355 32.5152H14.4866C13.1531 32.5152 12.072 31.4343 12.072 30.1007C12.072 28.7673 13.153 27.6862 14.4866 27.6862H52.6355V32.5152Z" fill="#BAF39A"/>
<path d="M68.8645 11.8413L64.7086 16.9014H4.82935V7.24344C4.82935 6.79891 5.18966 6.4386 5.63419 6.4386H64.7086L68.8645 11.8413Z" fill="#FFE077"/>
<path d="M23.7423 13.2797C22.8548 13.2797 22.1326 12.5575 22.1326 11.67C22.1326 10.7825 22.8548 10.0603 23.7423 10.0603C24.6298 10.0603 25.3519 10.7825 25.3519 11.67C25.3519 12.5575 24.6298 13.2797 23.7423 13.2797Z" fill="#FFC263"/>
<path d="M18.1082 13.2797C17.2207 13.2797 16.4985 12.5575 16.4985 11.67C16.4985 10.7825 17.2207 10.0603 18.1082 10.0603C18.9957 10.0603 19.7179 10.7825 19.7179 11.67C19.7179 12.5575 18.9957 13.2797 18.1082 13.2797Z" fill="#FFC263"/>
<path d="M12.4747 13.2797C11.5872 13.2797 10.865 12.5575 10.865 11.67C10.865 10.7825 11.5872 10.0603 12.4747 10.0603C13.3622 10.0603 14.0844 10.7825 14.0844 11.67C14.0844 12.5575 13.3622 13.2797 12.4747 13.2797Z" fill="#FFC263"/>
<path d="M64.7083 6.4386H74.3662C74.8107 6.4386 75.1711 6.79891 75.1711 7.24344V16.9014H64.7083V6.4386Z" fill="#FFC263"/>
<path d="M40.0001 51.7505C39.3333 51.7505 38.793 51.21 38.793 50.5433V44.7485C38.793 44.0816 39.3334 43.5413 40.0001 43.5413C40.6669 43.5413 41.2073 44.0817 41.2073 44.7485V50.5433C41.2073 51.21 40.667 51.7505 40.0001 51.7505Z" fill="#FCF1F2"/>
<path d="M46.5194 48.2897V47.3239C46.5194 44.375 48.5018 41.8892 51.2066 41.1264C51.7635 40.9694 54.5097 42.3017 55.583 44.5295L62.3174 58.5084C63.9972 61.9953 64.8694 65.8159 64.8694 69.6863V71.9517C64.8694 75.5077 61.9868 78.3903 58.4308 78.3903H58.7527C55.1968 78.3903 52.3141 75.5077 52.3141 71.9517C52.3141 70.4094 51.9916 68.8839 51.3672 67.4736L50.849 66.3027C50.3333 65.1377 49.1791 64.3864 47.9052 64.3864H32.0955C30.8216 64.3864 29.6674 65.1377 29.1518 66.3027L28.6335 67.4736C28.0091 68.8841 27.6866 70.4094 27.6866 71.9517C27.6866 75.5077 24.804 78.3903 21.248 78.3903H17.0629C13.5069 78.3903 10.6243 75.5077 10.6243 71.9517V69.6863C10.6243 65.8159 11.4966 61.9953 13.1765 58.5084L19.9108 44.5295C20.9841 42.3017 23.2385 40.8853 25.7115 40.8853H27.0429C30.5988 40.8853 33.4815 43.768 33.4815 47.3239V48.2897C33.4815 49.1788 34.2021 49.8994 35.0911 49.8994H44.9101C45.7988 49.8994 46.5194 49.1788 46.5194 48.2897Z" fill="#BCF1F8"/>
<path d="M69.3757 69.6869V71.9518C69.3757 75.5075 66.4929 78.3904 62.9372 78.3904H58.752C58.6473 78.3904 58.5428 78.3871 58.4398 78.3822C61.8411 78.21 64.5468 75.3963 64.5468 71.9516V69.6868C64.5468 65.8155 63.6743 61.9958 61.9956 58.5077L55.2607 44.5294C54.4479 42.8425 52.9573 41.6208 51.2061 41.1266C51.7631 40.9688 52.3506 40.8852 52.9573 40.8852H54.2886C56.7611 40.8852 59.0161 42.3018 60.0898 44.5294L66.8247 58.5077C68.5034 61.996 69.3757 65.8157 69.3757 69.6869Z" fill="#91F2F2"/>
<path d="M24.7078 61.167C22.4853 61.167 20.6836 59.3653 20.6836 57.143C20.6836 54.9205 22.4853 53.1188 24.7078 53.1188C26.9303 53.1188 28.732 54.9205 28.732 57.143C28.7319 59.3653 26.9303 61.167 24.7078 61.167Z" fill="white"/>
<path d="M59.3154 55.9357H56.4985V53.1188C56.4985 52.4519 55.958 51.9116 55.2913 51.9116C54.6244 51.9116 54.0841 52.4521 54.0841 53.1188V55.9357H51.2672C50.6004 55.9357 50.0601 56.4761 50.0601 57.1429C50.0601 57.8096 50.6005 58.3501 51.2672 58.3501H54.0841V61.1669C54.0841 61.8338 54.6246 62.3741 55.2913 62.3741C55.9582 62.3741 56.4985 61.8336 56.4985 61.1669V58.3501H59.3154C59.9823 58.3501 60.5226 57.8096 60.5226 57.1429C60.5226 56.4761 59.9821 55.9357 59.3154 55.9357Z" fill="white"/>
<path d="M45.6336 60.7645H42.4142C41.7473 60.7645 41.207 60.2241 41.207 59.5573C41.207 58.8906 41.7475 58.3502 42.4142 58.3502H45.6336C46.3005 58.3502 46.8408 58.8906 46.8408 59.5573C46.8408 60.2241 46.3005 60.7645 45.6336 60.7645Z" fill="#7DE8F9"/>
<path d="M37.5855 60.7645H34.3661C33.6992 60.7645 33.1589 60.2241 33.1589 59.5573C33.1589 58.8906 33.6994 58.3502 34.3661 58.3502H37.5855C38.2524 58.3502 38.7927 58.8906 38.7927 59.5573C38.7927 60.2241 38.2524 60.7645 37.5855 60.7645Z" fill="#7DE8F9"/>
<path d="M39.9995 46.1167C38.4437 46.1167 37.1826 44.8556 37.1826 43.2998C37.1826 41.7441 38.4437 40.483 39.9995 40.483C41.5553 40.483 42.8164 41.7441 42.8164 43.2998C42.8164 44.8555 41.5553 46.1167 39.9995 46.1167Z" fill="#CBB0F2"/>
</g>
<defs>
<clipPath id="clip0_332_3268">
<rect width="80" height="80" fill="white"/>
</clipPath>
</defs>
</svg>
