<svg width="80" height="80" viewBox="0 0 80 80" fill="none" xmlns="http://www.w3.org/2000/svg">
<path d="M50.6773 68.3489V61.9322H29.3228V68.3489C29.4114 73.6909 26.3743 78.8282 26.3743 78.8282H53.6258C53.6258 78.8282 50.5887 73.691 50.6773 68.3489Z" fill="#ACACAC"/>
<path d="M29.322 63.198H50.6772V66.3716H29.322V63.198Z" fill="#9C9C9C"/>
<path d="M77.4554 63.1987H2.54425C1.48076 63.1987 0.618652 62.3366 0.618652 61.2731V15.2198C0.618652 14.1563 1.48076 13.2942 2.54425 13.2942H77.4554C78.5188 13.2942 79.381 14.1563 79.381 15.2198V61.2733C79.381 62.3366 78.5188 63.1987 77.4554 63.1987Z" fill="#ACACAC"/>
<path d="M79.381 15.2198V61.2733C79.381 62.3365 78.5189 63.1985 77.4542 63.1985H74.2821C75.3453 63.1985 76.2069 62.3368 76.2069 61.2736V15.22C76.2069 14.1568 75.3453 13.2936 74.2821 13.2936H77.4542C78.5189 13.2936 79.381 14.1566 79.381 15.2198Z" fill="#9C9C9C"/>
<path d="M6.74871 54.0045V20.7245C6.74871 19.7485 7.50223 18.9573 8.43183 18.9573H71.5678C72.4974 18.9573 73.2509 19.7485 73.2509 20.7245V54.0045H6.74871Z" fill="#C4E2FF"/>
<path d="M73.2509 20.7245V54.0045L70.0782 54.0043V20.7245C70.0782 19.7486 69.3245 18.9568 68.3946 18.9568L71.5678 18.9573C72.4974 18.9573 73.2509 19.7485 73.2509 20.7245Z" fill="#A5D5F9"/>
<path d="M58.112 80H21.8888C21.2417 80 20.7171 79.4754 20.7171 78.8282C20.7171 78.1811 21.2417 77.6565 21.8888 77.6565H58.112C58.7591 77.6565 59.2838 78.1811 59.2838 78.8282C59.2838 79.4754 58.7591 80 58.112 80Z" fill="#5A5A5A"/>
<path d="M65.9976 54.0046H14.0015V1.29347C14.0015 0.579478 14.5804 0.000782643 15.2942 0.000782643H64.7048C65.4188 0.000782643 65.9975 0.579635 65.9975 1.29347L65.9976 54.0046Z" fill="#EAF6FF"/>
<path d="M65.9975 1.29347L65.9976 54.0046L62.8246 54.0051V1.29332C62.8246 0.579321 62.2454 0 61.5313 0L64.7048 0.000782643C65.4188 0.000782643 65.9975 0.579635 65.9975 1.29347Z" fill="#D8ECFE"/>
<path d="M33.7116 8.49922C32.1805 8.49922 30.9394 9.74035 30.9394 11.2715V22.1329C30.9394 22.5296 30.9394 23.2678 29.4869 23.9993C29.0847 24.2018 28.6416 24.3002 28.1326 24.3002H28.1275C27.5863 24.2996 27.1207 24.1698 26.7035 23.9032C25.5947 23.1949 25.5044 22.6876 25.5044 22.1443V11.2715C25.5044 9.74035 24.2633 8.49922 22.7322 8.49922C21.2011 8.49922 19.96 9.74035 19.96 11.2715V22.1445C19.96 24.8186 21.2245 26.9825 23.7185 28.5758C25.0332 29.4157 26.514 29.8428 28.1201 29.845H28.1326C29.5089 29.845 30.8036 29.5444 31.981 28.9515C34.885 27.4892 36.4843 25.0675 36.4843 22.1331V11.2716C36.4839 9.74035 35.2427 8.49922 33.7116 8.49922Z" fill="#97D729"/>
<path d="M59.4755 25.5081L54.2376 18.6062L58.5934 12.8294C59.5152 11.6069 59.2715 9.86861 58.049 8.94683C56.8261 8.02457 55.088 8.26876 54.1664 9.49131L50.7542 14.0165L47.3146 9.48443C46.389 8.26486 44.6499 8.0266 43.4303 8.95198C42.2106 9.87768 41.9723 11.6167 42.8979 12.8363L47.2851 18.6172L42.2948 25.2355C41.373 26.458 41.6167 28.1963 42.8393 29.1181C43.3391 29.4951 43.925 29.6769 44.5063 29.6769C45.3467 29.6769 46.1771 29.2963 46.722 28.5736L50.7685 23.2071L55.0588 28.8601C55.6042 29.5786 56.4318 29.9566 57.2692 29.9566C57.8532 29.9566 58.442 29.7727 58.9431 29.3926C60.1628 28.4667 60.4012 26.7277 59.4755 25.5081Z" fill="#97D729"/>
<path d="M36.4843 11.2716V22.1331C36.4843 25.0686 34.8864 27.4901 31.981 28.9515C30.8052 29.5449 29.5098 29.845 28.1326 29.845H28.1201C27.6139 29.8435 27.1203 29.8016 26.6411 29.7175C27.4567 29.5763 28.2342 29.3209 28.9657 28.9511C31.8711 27.4896 33.4691 25.0681 33.4691 22.1326V11.271C33.4691 10.2951 32.966 9.43819 32.2043 8.9448C32.6376 8.66233 33.1547 8.49922 33.7116 8.49922C35.2427 8.49922 36.4839 9.74035 36.4843 11.2716Z" fill="#8BC727"/>
<path d="M58.9431 29.3926C58.442 29.7727 57.8532 29.9566 57.2692 29.9566C56.7392 29.9566 56.2132 29.8049 55.7609 29.5097C55.8181 29.4732 55.8735 29.4337 55.9291 29.3922C57.1493 28.4672 57.3874 26.728 56.4624 25.5078L51.657 19.177C51.4011 18.8396 51.4003 18.3734 51.6552 18.0353L55.5801 12.8293C56.502 11.6075 56.2577 9.8683 55.0358 8.94635C54.9819 8.90667 54.9278 8.86855 54.8724 8.83371C55.8213 8.21798 57.0939 8.22439 58.0507 8.94635C59.2724 9.8683 59.5169 11.6074 58.595 12.8293L54.2393 18.6069L59.4772 25.5078C60.4023 26.728 60.1633 28.4675 58.9431 29.3926Z" fill="#8BC727"/>
<path d="M60.0391 37.134H19.9595C19.3124 37.134 18.7878 36.6094 18.7878 35.9623C18.7878 35.3151 19.3124 34.7905 19.9595 34.7905H60.0391C60.6862 34.7905 61.2108 35.3151 61.2108 35.9623C61.2108 36.6094 60.6862 37.134 60.0391 37.134Z" fill="#96CCED"/>
<path d="M60.0391 41.9615H19.9595C19.3124 41.9615 18.7878 41.4369 18.7878 40.7898C18.7878 40.1426 19.3124 39.618 19.9595 39.618H60.0391C60.6862 39.618 61.2108 40.1426 61.2108 40.7898C61.2108 41.4369 60.6862 41.9615 60.0391 41.9615Z" fill="#96CCED"/>
<path d="M60.0391 46.7891H19.9595C19.3124 46.7891 18.7878 46.2644 18.7878 45.6173C18.7878 44.9702 19.3124 44.4455 19.9595 44.4455H60.0391C60.6862 44.4455 61.2108 44.9702 61.2108 45.6173C61.2108 46.2644 60.6862 46.7891 60.0391 46.7891Z" fill="#96CCED"/>
<path d="M79.381 54.0045V61.2733C79.381 62.3365 78.5189 63.1985 77.4542 63.1985L2.54425 63.1987C1.47951 63.1987 0.618652 62.3363 0.618652 61.2731V54.0045H79.381Z" fill="#5A5A5A"/>
<path d="M79.381 54.0045L79.3806 61.2743C79.3806 62.3375 78.5189 63.1985 77.4542 63.1985H74.2821C75.3453 63.1985 76.2069 62.3368 76.2069 61.2736V54.0051L79.381 54.0045Z" fill="#444444"/>
<path d="M42.3798 59.7731H37.6193C36.9722 59.7731 36.4475 59.2485 36.4475 58.6014C36.4475 57.9543 36.9722 57.4296 37.6193 57.4296H42.3798C43.0269 57.4296 43.5516 57.9543 43.5516 58.6014C43.5516 59.2485 43.0269 59.7731 42.3798 59.7731Z" fill="#333333"/>
</svg>
