<svg width="80" height="80" viewBox="0 0 80 80" fill="none" xmlns="http://www.w3.org/2000/svg">
<g clip-path="url(#clip0_332_3286)">
<path d="M28.2812 63.4375H51.7188V77.6562H28.2812V63.4375Z" fill="#D8D8FC"/>
<path d="M40 63.4375H51.7188V77.6562H40V63.4375Z" fill="#A3A3D1"/>
<path d="M80 0V56.25L75.3125 60.9375H4.6875L0 56.25V0H80Z" fill="#32393F"/>
<path d="M80 0V56.25L75.3125 60.9375H40V0H80Z" fill="#32393F"/>
<path d="M4.6875 4.6875H75.3125V51.5625H4.6875V4.6875Z" fill="#FFD396"/>
<path d="M40 4.6875H75.3125V51.5625H40V4.6875Z" fill="#FFB64C"/>
<path d="M18.9062 75.3125H61.0938V80H18.9062V75.3125Z" fill="#F2F2FC"/>
<path d="M40 75.3125H61.0938V80H40V75.3125Z" fill="#D8D8FC"/>
<path d="M52 35.1562L47.0311 46.875L41.4531 51.5625H38.5466L32.9686 46.875L27.9998 35.1562L37.3748 16.4062H42.625L52 35.1562Z" fill="#F2F2FC"/>
<path d="M52.0001 35.1562L47.0312 46.875L41.4532 51.5625H40V16.4062H42.6251L52.0001 35.1562Z" fill="#D8D8FC"/>
<path d="M37.6562 16.4062H42.3438V37.5H37.6562V16.4062Z" fill="#D8D8FC"/>
<path d="M40 16.4062H42.3438V37.5H40V16.4062Z" fill="#A3A3D1"/>
<path d="M21.25 14.0625H58.75V18.75H21.25V14.0625Z" fill="#575F64"/>
<path d="M40 14.0625H58.75V18.75H40V14.0625Z" fill="#32393F"/>
<path d="M23.5938 23.4375H9.375V9.375H23.5938V23.4375Z" fill="#FF641A"/>
<path d="M70.625 23.4375H56.4062V9.375H70.625V23.4375Z" fill="#F03800"/>
<path d="M32.9688 46.875H47.0312V60.9375H32.9688V46.875Z" fill="#FF641A"/>
<path d="M40 46.875H47.0312V60.9375H40V46.875Z" fill="#F03800"/>
<path d="M0 56.25H80V65.7812H0V56.25Z" fill="#F2F2FC"/>
<path d="M40 56.25H80V65.7812H40V56.25Z" fill="#D8D8FC"/>
</g>
<defs>
<clipPath id="clip0_332_3286">
<rect width="80" height="80" fill="white"/>
</clipPath>
</defs>
</svg>
